<svg t="1730351642626" class="icon" viewBox="0 0 1024 1024" version="1.1" xmlns="http://www.w3.org/2000/svg" p-id="1711" width="200" height="200"><path d="M661.9 235.03h-42.83c-11.05 0-20 8.95-20 20s8.95 20 20 20h42.83c83.43 0 151.31 67.88 151.31 151.31S745.33 577.66 661.9 577.66H239.07l137.17-137.17c7.81-7.81 7.81-20.47 0-28.28s-20.47-7.81-28.28 0l-171.31 171.3-0.21 0.21-0.02 0.02-0.01 0.01-0.01 0.01-0.01 0.01-0.01 0.01-0.02 0.02a19.883 19.883 0 0 0-5.57 13.82v0.06c0.01 5.52 2.25 10.52 5.88 14.13L347.96 783.1c3.91 3.91 9.02 5.86 14.14 5.86s10.24-1.95 14.14-5.86c7.81-7.81 7.81-20.47 0-28.29L239.07 617.66H661.9c105.49 0 191.31-85.82 191.31-191.31S767.39 235.03 661.9 235.03z" fill="#333333" p-id="1712"></path></svg>